<svg width="1400" height="900" viewBox="0 0 1400 900" xmlns="http://www.w3.org/2000/svg" role="img" aria-labelledby="title desc">
  <title id="title">Bay Area service map centered on San Lorenzo</title>
  <desc id="desc">Stylized road-line map for National Truck Driving School service cities.</desc>
  <rect width="1400" height="900" fill="#0A0E14"/>
  <path d="M110 705 C260 590 327 460 472 437 C636 411 697 258 857 225 C1019 192 1122 274 1290 154" fill="none" stroke="#3A424F" stroke-width="16" stroke-linecap="round"/>
  <path d="M170 290 C336 339 429 329 557 413 C676 492 765 589 948 585 C1102 583 1186 642 1290 762" fill="none" stroke="#252B36" stroke-width="12" stroke-linecap="round"/>
  <path d="M236 746 C376 655 493 598 602 497 C704 402 748 312 842 225" fill="none" stroke="#F5A524" stroke-width="6" stroke-dasharray="18 20" stroke-linecap="round"/>
  <circle cx="602" cy="497" r="26" fill="#F5A524"/>
  <circle cx="602" cy="497" r="10" fill="#0A0E14"/>
  <g fill="#F8F8F5" font-family="Inter, Arial, sans-serif" font-size="26" font-weight="700">
    <text x="635" y="507">San Lorenzo</text>
    <text x="350" y="365">Oakland</text>
    <text x="446" y="590">Hayward</text>
    <text x="764" y="633">Fremont</text>
    <text x="970" y="214">San Francisco</text>
    <text x="1035" y="730">San Jose</text>
  </g>
  <g fill="#8A93A3" font-family="JetBrains Mono, monospace" font-size="16">
    <text x="92" y="80">BAY AREA · CALIFORNIA</text>
    <text x="92" y="112">2480 GRANT AVE</text>
  </g>
</svg>
